<!--?xml version="1.0" encoding="UTF-8"?-->
<svg width="200px" height="200px" viewBox="0 0 200 200" version="1.1" xmlns="http://www.w3.org/2000/svg" xmlns:xlink="http://www.w3.org/1999/xlink" style="">
    <!-- Generator: Sketch 43.2 (39069) - http://www.bohemiancoding.com/sketch -->
    <title>faisal_logo</title>
    <desc>Created with Sketch.</desc>
    <defs></defs>
    <g id="Page-1" stroke="none" stroke-width="1" fill="none" fill-rule="evenodd">
        <g id="faisal_logo" stroke="#FAFAFA">
            <g id="Group" transform="translate(100.690260, 100.792047) rotate(-0.000000) translate(-100.690260, -100.792047) translate(0.190260, 0.292047)">
                <g transform="translate(0.315988, 0.333755)">
                    <g transform="translate(99.910941, 99.657524) rotate(0.000000) translate(-99.910941, -99.657524) translate(0.410941, 0.157524)">
                        <g transform="translate(99.026841, 168.500863) rotate(0.000000) translate(-99.026841, -168.500863) translate(16.526841, 155.500863)" fill-rule="nonzero">
                            <path id="Shape" d="M6.08651935,5.92149586L6.08651935,10.8916942L15.4141705,10.8916942L15.4141705,15.6916803L6.08651935,15.6916803L6.08651935,25.0533554L0.333333033,25.0533554L0.333333033,0.951297482L16.1971485,0.951297482L16.1971485,5.92149586Z" class="pATEatOk_0"></path>
                            <path d="M44.6566974,25.0533554 L42.7843587,20.3214542 L33.4567075,20.3214542 L31.6864963,25.0533554 L25.3545871,25.0533554 L35.4652163,0.951297482 L41.1162751,0.951297482 L51.1247767,25.0533554 L44.6566974,25.0533554 Z M38.1886181,7.38532141 L35.1247911,15.6576379 L41.1843601,15.6576379 L38.1886181,7.38532141 Z" id="Shape" class="pATEatOk_1"></path>
                            <path id="Rectangle-path" width="5.85531388" height="24.1020579" d="M63.3460423 0.951297482 L69.20135618 0.951297482 L69.20135618 25.053355382 L63.3460423 25.053355382 Z" class="pATEatOk_2"></path>
                            <path d="M97.1162247,7.21510914 C96.6169343,6.57964998 95.9644527,6.07468691 95.1587796,5.7002199 C94.3531066,5.3257529 93.5758023,5.1385194 92.8268668,5.1385194 C92.4410516,5.1385194 92.0495626,5.17256186 91.6523998,5.24064677 C91.255237,5.30873168 90.8977906,5.43922775 90.5800603,5.632135 C90.2623301,5.82504224 89.9956637,6.07468691 89.7800611,6.381069 C89.5644584,6.68745109 89.4566571,7.07893932 89.4566571,7.55553368 C89.4566571,7.96404314 89.5417634,8.30446768 89.711976,8.57680732 C89.8821886,8.84914696 90.1318338,9.08744414 90.4609115,9.29169887 C90.7899892,9.4959536 91.1814782,9.6831871 91.6353785,9.85339937 C92.0892788,10.0236116 92.5999167,10.1994977 93.1672921,10.3810574 C93.9843126,10.6533971 94.8353757,10.9541054 95.7204812,11.2831825 C96.6055868,11.6122595 97.4112599,12.0491377 98.1375003,12.593817 C98.8637408,13.1384962 99.4651587,13.8136716 99.941754,14.619343 C100.418349,15.4250144 100.656647,16.4292669 100.656647,17.6321003 C100.656647,19.0164934 100.401328,20.2136531 99.8906903,21.2235792 C99.3800524,22.2335054 98.6935282,23.0675455 97.8311176,23.7256996 C96.9687071,24.3838538 95.9814739,24.8717956 94.8694182,25.1895252 C93.7573624,25.5072548 92.6112642,25.6661196 91.4311234,25.6661196 C89.7063023,25.6661196 88.0382187,25.3654112 86.4268726,24.7639945 C84.8155265,24.1625778 83.4765206,23.3058427 82.4098549,22.1937892 L86.2226175,18.3129493 C86.8126878,19.0391884 87.5899921,19.6462788 88.5545302,20.1342207 C89.5190684,20.6221625 90.4779328,20.8661334 91.4311234,20.8661334 C91.8623287,20.8661334 92.2821865,20.8207435 92.6906967,20.7299636 C93.099207,20.6391837 93.4566535,20.4916664 93.7630362,20.2874117 C94.0694189,20.083157 94.3133903,19.8108174 94.4949504,19.4703928 C94.6765106,19.1299683 94.7672906,18.7214588 94.7672906,18.2448644 C94.7672906,17.790965 94.6538155,17.4051506 94.4268654,17.087421 C94.1999152,16.7696914 93.8765113,16.4803305 93.4566535,16.2193384 C93.0367957,15.9583462 92.5148104,15.7200491 91.8906975,15.5044468 C91.2665845,15.2888446 90.5573653,15.0562212 89.7630398,14.8065765 C88.9914093,14.5569319 88.2368,14.2618972 87.499212,13.9214727 C86.7616241,13.5810482 86.1034686,13.14417 85.5247457,12.6108382 C84.9460229,12.0775064 84.480775,11.4306998 84.1290023,10.6704183 C83.7772296,9.9101368 83.6013432,8.98531678 83.6013432,7.89595823 C83.6013432,6.55695501 83.8736834,5.41085904 84.4183638,4.45767031 C84.9630441,3.50448158 85.6779371,2.72150512 86.5630427,2.10874094 C87.4481483,1.49597676 88.4467289,1.0477511 89.5587847,0.764063982 C90.6708404,0.48037686 91.7942436,0.338533299 92.9289944,0.338533299 C94.2906953,0.338533299 95.680765,0.588177966 97.0992034,1.0874673 C98.5176419,1.58675664 99.7601939,2.32434315 100.82686,3.30022685 L97.1162247,7.21510914 Z" id="Shape" class="pATEatOk_3"></path>
                            <path d="M131.05662,25.0533554 L129.184281,20.3214542 L119.85663,20.3214542 L118.086419,25.0533554 L111.754509,25.0533554 L121.865139,0.951297482 L127.516197,0.951297482 L137.524699,25.0533554 L131.05662,25.0533554 Z M124.58854,7.38532141 L121.524713,15.6576379 L127.584282,15.6576379 L124.58854,7.38532141 Z" id="Shape" class="pATEatOk_4"></path>
                            <path id="Shape" d="M149.745965,25.0533554L149.745965,0.951297482L155.601278,0.951297482L155.601278,19.9810296L164.92893,19.9810296L164.92893,25.0533554Z" class="pATEatOk_5"></path>
                        </g>
                        <path d="M197.676725,197.812166 L0.56805066,197.812166 L0.56805066,0.704151822 L197.676725,0.704151822 L197.676725,197.812166 Z M8.55175344,9.18733982 L8.55175344,189.328978 L8.55175344,189.828978 L9.05175344,189.828978 L189.193022,189.828978 L189.693022,189.828978 L189.693022,189.328978 L189.693022,9.18733982 L189.693022,8.68733982 L189.193022,8.68733982 L9.05175344,8.68733982 L8.55175344,8.68733982 L8.55175344,9.18733982 Z" id="Shape" class="pATEatOk_6"></path>
                    </g>
                </g>
            </g>
        </g>
    </g>
<style>.pATEatOk_0{stroke-dasharray:99 101;stroke-dashoffset:100;animation:pATEatOk_draw 2860ms ease-out 0ms forwards;}.pATEatOk_1{stroke-dasharray:114 116;stroke-dashoffset:115;animation:pATEatOk_draw 2860ms ease-out 23ms forwards;}.pATEatOk_2{stroke-dasharray:60 62;stroke-dashoffset:61;animation:pATEatOk_draw 2860ms ease-out 46ms forwards;}.pATEatOk_3{stroke-dasharray:110 112;stroke-dashoffset:111;animation:pATEatOk_draw 2860ms ease-out 70ms forwards;}.pATEatOk_4{stroke-dasharray:114 116;stroke-dashoffset:115;animation:pATEatOk_draw 2860ms ease-out 93ms forwards;}.pATEatOk_5{stroke-dasharray:79 81;stroke-dashoffset:80;animation:pATEatOk_draw 2860ms ease-out 116ms forwards;}.pATEatOk_6{stroke-dasharray:1513 1515;stroke-dashoffset:1514;animation:pATEatOk_draw 2860ms ease-out 140ms forwards;}@keyframes pATEatOk_draw{100%{stroke-dashoffset:0;}}@keyframes pATEatOk_fade{0%{stroke-opacity:1;}94.44444444444444%{stroke-opacity:1;}100%{stroke-opacity:0;}}</style></svg>